<svg id="Слой_1" data-name="Слой 1" xmlns="http://www.w3.org/2000/svg" viewBox="0 0 2000 2000"><path d="M1000,165.07c-461.12,0-834.93,373.81-834.93,834.93S538.88,1834.93,1000,1834.93s834.93-373.81,834.93-834.93S1461.12,165.07,1000,165.07ZM573.49,673.32q427.86-.08,855.72.19c10.18,0,20.35,3.81,33.53,6.43-5.21,6.09-7.31,8.91-9.76,11.36q-150.23,150.19-300.46,300.35c-23.66,23.68-46.73,47.95-70.34,71.69-12.39,12.46-25,24.81-38.19,36.39-20.88,18.28-51.36,16.44-70.7-3.32q-35.56-36.36-71.37-72.48Q825.56,947.25,749,870.77,656.26,778,563.49,685.25c-2.73-2.74-5.25-5.69-10.14-11C562.39,673.81,567.94,673.32,573.49,673.32ZM1479,714.87V1183.2c-79.4-80-156.77-158-233.33-235.1ZM520.15,1230.08q-.07-253.77.17-507.55c0-8.35,3-16.71,5-26.92l270,269.83L521.31,1239C520.86,1235.68,520.15,1232.88,520.15,1230.08Zm958.47,57.61c-2.65,23.09-22.3,38.77-46.23,38.87-50.13.2-100.27.07-150.41.07q-355.57,0-711.15.09c-20.92,0-36.19-8.37-46-26.89-3.85-7.29-3.11-12.93,3.16-19.15q94.35-93.69,188.2-187.87,47.06-47,94.06-94.13c3.07-3.07,6.28-6,10.43-10,17.56,17.25,34.67,33.87,51.56,50.72,29.43,29.38,57.65,60.07,88.38,88,29.87,27.18,77.36,24.38,106.26-4.13,28.75-28.37,56.69-57.56,85.23-86.14,20.38-20.41,41.16-40.42,61.81-60.57a70.57,70.57,0,0,1,6.1-4.72c3.18,2.94,6.16,5.53,9,8.3,37.3,36.83,74.75,73.52,111.8,110.6q66.7,66.76,132.78,134.15c2.65,2.68,5.74,6.53,5.81,9.9C1479.75,1252.47,1480.62,1270.27,1478.62,1287.69Z"/></svg>