<svg id="Слой_1" data-name="Слой 1" xmlns="http://www.w3.org/2000/svg" viewBox="0 0 2000 2000"><path d="M998.88,1834.14c-468.73-.46-834.8-368.8-834-839.21.75-468.67,369.41-834.87,839.46-833.87,471,1,834.7,369,833.62,843.55C1836.86,1469.7,1467.77,1834.6,998.88,1834.14Zm763.12-836c0-428.06-333.38-761.71-761-761.53-425,.19-759.83,334-760.59,758.34-.77,427.91,332.5,762.74,759.57,763.15C1428.55,1758.52,1762,1426,1762,998.15ZM852.12,1291c0,62.44.77,124.9-.37,187.32-.47,25.33,8.28,36.11,34.29,35.37,42.52-1.21,85.23-2.35,127.61.35,34.89,2.22,42.94-11.79,42.49-44.3-1.63-119.18.33-238.42-1.25-357.6-.42-32.3,7.17-46.61,42.41-44.23,42.36,2.86,85.08-.29,127.6.9,25.44.71,36-8.68,35-34.67-1.39-35.43-1.29-71-.08-106.41.81-24-9-32.78-32.51-32.27-45.37,1-90.83-1.19-136.15.61-28.39,1.14-37.46-9.69-36.11-37.08,1.88-38.23-.76-76.69,1.31-114.9,2.63-48.56,24.48-68.39,72.82-69.31,32.61-.61,65.27-1,97.86,0,23.26.69,33.5-7.88,32.84-32.14q-1.77-63.81,0-127.7c.64-23.46-7.71-33.61-31.84-32.88-53.85,1.63-107.93-.79-161.57,3.21-120.86,9-193.71,77.47-207.47,197.46-6.76,59-5.49,118.89-6.74,178.4-.44,20.92-3.12,33.72-29.54,35.14-80.3,4.34-80.23,5.53-80.21,85.86q0,6.38,0,12.77c.06,84.43-5.43,74.74,72.18,73.06,31.17-.67,38.52,11.54,37.76,40-1.64,61-.51,122-.51,183Z"/></svg>