<svg id="Слой_1" data-name="Слой 1" xmlns="http://www.w3.org/2000/svg" viewBox="0 0 2000 2000"><path d="M802.68,693.22c.33,51.16-39.91,91.75-91.24,92.06s-92-39.79-92.4-91c-.4-51.54,39.53-91.68,91.36-91.83S802.36,641.69,802.68,693.22ZM1003.4,159.45C530.21,159.12,163.52,525,164,997c.51,469,368.65,836,838.18,835.52,468.75-.43,835.14-368.42,834.9-838.56C1836.88,526.08,1470.92,159.77,1003.4,159.45Zm.68,1597.34c-428.46.32-763.72-332.49-764.49-758.92-.77-427.95,332-762.14,759.76-762.93s761.58,332.19,762.21,760.31C1762.18,1420,1427.51,1756.46,1004.08,1756.79ZM788.52,828.86v505.63h-152c-1-11.46-2.56-21.61-2.57-31.76-.16-146.14.56-292.3-.69-438.43-.24-27.89,8.07-37.43,35.95-36C707.85,830.39,746.73,828.86,788.52,828.86Zm590.25,189.46c2.17,99.08,1,198.23,1,297.34,0,5.61-1.32,11.22-2.23,18.46H1222.35v-33c0-75.52.46-151.05-.32-226.56a266.63,266.63,0,0,0-6.92-59.43c-9.35-38.76-32.11-57-69.35-59.3-40-2.46-74,14.66-84.55,50.24-8.9,30-12.47,62.43-13.21,93.9-1.81,76.6-.59,153.27-.59,234.18H891.82c-.93-10.11-2.65-20.19-2.66-30.26-.18-146.33.46-292.66-.66-439-.21-27.13,6.67-38.33,35.47-36.61,37.32,2.23,74.87.55,113.87.55,2.39,20.69,4.34,37.53,7,60.4,58.2-72.57,130.83-82.46,210.67-65.53,54.32,11.52,91.06,44.87,106.84,97.39C1371.74,952.41,1378.05,985.75,1378.77,1018.32Z"/></svg>