<svg id="Слой_1" data-name="Слой 1" xmlns="http://www.w3.org/2000/svg" viewBox="0 0 2000 2000"><path d="M1000,165.07c-461.12,0-834.93,373.81-834.93,834.93S538.88,1834.93,1000,1834.93s834.93-373.81,834.93-834.93S1461.12,165.07,1000,165.07Zm410.78,1126.49c-40.48,73-111.69,97.32-223.5,110.29-75.12-33.7-180.72-70.37-275.16-126C778.88,1197.35,683.53,1078,611.83,941.43c-44.6-84.94-62.6-177-6.73-260.72,25.22-37.82,75.08-71.61,119.35-81.08C776.14,588.57,800.33,642,822.06,685c37,73.36,61.73,143.47-7.86,214.43-10.93,11.15-9.29,47.64.53,64.05,60,100.33,146.91,171.59,252.52,221.36,36.24,17.07,58.29,6.61,76.81-26,23.89-42,56-89.7,108.41-66.85,62.66,27.32,120.28,69.78,172.64,114.42C1436.75,1216.34,1424.55,1266.75,1410.78,1291.56Z"/></svg>