<svg id="Слой_1" data-name="Слой 1" xmlns="http://www.w3.org/2000/svg" viewBox="0 0 2000 2000"><path d="M1143.62,846.12A143.62,143.62,0,1,1,1000,702.51,143.62,143.62,0,0,1,1143.62,846.12ZM1834.93,1000c0,461.12-373.81,834.93-834.93,834.93S165.07,1461.12,165.07,1000,538.88,165.07,1000,165.07,1834.93,538.88,1834.93,1000ZM1355,847.91c0-98-39.89-166.2-39.89-166.2l-.24.07c-45.12-87.36-120-146.44-207.39-174.67l-1,.46.38-.46s-46.62-16.25-108-16.25c-126.85,0-218.66,64.43-271.05,126.87l.13,1C681.48,672.26,645,753.92,645,847.45c0,99,34.6,167.75,34.6,167.75,38.24,87.06,111.15,163.09,161,230.18,31.48,39.33,63.44,88.61,80.22,118.45,20.45,38.8,28.85,65,44.09,111.73,8.93,25.73,17.33,33.58,35.13,33.58,19.45,0,28.29-13.15,35.15-33.58,14.15-44.09,25.18-77.59,42.44-109.63,34-61.33,77.12-115.89,119-168.28,11.49-14.7,85-101.23,118-169.85C1314.65,1027.8,1355,952.77,1355,847.91Z"/></svg>