<svg id="Слой_1" data-name="Слой 1" xmlns="http://www.w3.org/2000/svg" viewBox="0 0 2000 2000"><path d="M1000.49,161.87c472.37.81,837.15,368,835.81,841.26C1835,1470.37,1463.79,1837,994.15,1834.94,526,1832.89,162,1463.76,163.23,992.43,164.47,525.68,532,161.07,1000.49,161.87ZM239.07,996.27c.25,428.71,332.86,762.56,760,762.78,426.79.21,761.88-335,761.57-761.86-.32-427.24-334.11-759.75-762.78-759.86C572.47,237.22,238.81,571,239.07,996.27ZM569.81,636.61c-34.31,85.62-30.95,164.48-2.83,245.9l-52.31-3.64c23.92,90.7,76.87,154.71,162,205.9l-69.27,4.88c27.63,68,50.11,88.1,159.15,143-74.37,55.17-160.84,64-251.72,77.92,11.24,9.11,15.18,13.15,19.86,16,189,113.87,468.79,96.54,642.27-39.37,139-108.88,192.54-258.45,201.82-428,1.7-31,8-52.31,36.86-69,29.3-17,55.68-40.49,64.5-83l-81.73,25.53,56.9-89.73c-26.4.09-45,6-62.45,14.19-33.41,15.6-58.24,14.42-90.24-13.23-103.45-89.36-259-54-318.73,70.57-18.56,38.71-26,82.78-40,129.43C795.22,822.37,672.2,751,569.81,636.61Z"/></svg>